Coordinates
version=1
nRows=32
nColumns=22
inDegrees=yes

Units are S.I. units (second, meters, Newtons, ...)
If the header above contains a line with 'inDegrees', this indicates whether rotational values are in degrees (yes) or radians (no).

endheader
time	pelvis_tilt	pelvis_list	pelvis_rotation	pelvis_tx	pelvis_ty	pelvis_tz	hip_flexion_r	hip_adduction_r	hip_rotation_r	knee_angle_r	ankle_angle_r	subtalar_angle_r	hip_flexion_l	hip_adduction_l	hip_rotation_l	knee_angle_l	ankle_angle_l	subtalar_angle_l	lumbar_extension	lumbar_bending	lumbar_rotation
      2.78000000	     -5.00395528	     -4.91330985	      4.12274911	     -0.57217270	      0.95486081	      0.09064849	     26.63400289	      3.85547077	    -22.32478526	    -29.96467929	      7.23430340	     -4.66559932	      3.78036729	     -7.53251909	     11.33404080	    -48.65392577	      5.93704480	     17.86602029	     -0.48005046	      8.03527237	    -14.72773859
      2.79000000	     -4.99114409	     -5.03396042	      3.63218866	     -0.56488883	      0.95579875	      0.09430780	     25.92599491	      4.53424949	    -21.94483040	    -29.50176587	      7.48275286	     -4.72361656	      5.06849723	     -7.99032946	     11.03995809	    -50.14660618	      6.01963149	     16.04407034	     -0.46422833	      8.17032685	    -14.51547717
      2.80000000	     -4.96777449	     -5.14002318	      3.07075033	     -0.55768844	      0.95671677	      0.09814546	     25.19546127	      5.22222729	    -21.50547510	    -29.02792832	      7.71720114	     -4.76306457	      6.29091023	     -8.46453315	     10.71576514	    -51.41170599	      6.11979706	     14.10246360	     -0.47390088	      8.27544420	    -14.24474957
      2.81000000	     -4.95620091	     -5.24924077	      2.47858239	     -0.55056330	      0.95760553	      0.10209496	     24.44526483	      5.92529471	    -21.02886301	    -28.50361143	      7.93403547	     -4.78289151	      7.47840828	     -8.95074848	     10.43510762	    -52.45341713	      6.22764372	     12.18247943	     -0.47295038	      8.37136187	    -13.96317085
      2.82000000	     -4.94803827	     -5.34015858	      1.83846453	     -0.54350487	      0.95846270	      0.10614404	     23.67462747	      6.61951500	    -20.50239813	    -27.95352312	      8.13811537	     -4.79044080	      8.60667993	     -9.41934381	     10.17533727	    -53.26239891	      6.36378031	     10.31395246	     -0.47486599	      8.44025792	    -13.66772090
      2.83000000	     -4.94679171	     -5.41797704	      1.15948098	     -0.53652685	      0.95927773	      0.11027339	     22.88840746	      7.30471636	    -19.93217725	    -27.37864522	      8.33762596	     -4.79575467	      9.68281068	     -9.86198963	      9.95803419	    -53.84717369	      6.54903884	      8.56595157	     -0.47635135	      8.48841230	    -13.36369520
      2.84000000	     -4.95384241	     -5.47843549	      0.44613167	     -0.52961631	      0.96004889	      0.11445025	     22.08686428	      7.97025907	    -19.32247053	    -26.78019952	      8.52550423	     -4.80561739	     10.70467711	    -10.26121155	      9.79204345	    -54.20866229	      6.80102395	      6.93907362	     -0.47322534	      8.51608935	    -13.05440222
      2.85000000	     -4.97549575	     -5.51829711	     -0.29687683	     -0.52275953	      0.96076617	      0.11866170	     21.27659860	      8.60425832	    -18.70212358	    -26.16153151	      8.72494656	     -4.82397409	     11.67453663	    -10.60862162	      9.67618031	    -54.34381243	      7.14171608	      5.47228990	     -0.45543264	      8.52007139	    -12.74141802
      2.86000000	     -5.00443983	     -5.54683767	     -1.06178943	     -0.51600231	      0.96142473	      0.12288748	     20.46231436	      9.21422954	    -18.05258061	    -25.53644603	      8.90925746	     -4.84481539	     12.60066171	    -10.90682685	      9.62076013	    -54.27923840	      7.56278879	      4.17312817	     -0.43758516	      8.51452452	    -12.44309955
      2.87000000	     -5.04191035	     -5.56757043	     -1.84866788	     -0.50932981	      0.96201922	      0.12712176	     19.64493388	      9.80068118	    -17.38470360	    -24.90691727	      9.08171425	     -4.86344352	     13.48520266	    -11.15787628	      9.62370031	    -54.02466833	      8.04762558	      3.04592412	     -0.41697443	      8.50476772	    -12.15276545
      2.88000000	     -5.08944975	     -5.58077187	     -2.64771809	     -0.50276009	      0.96254117	      0.13134646	     18.83406835	     10.35855611	    -16.70469578	    -24.28441878	      9.25806849	     -4.87929620	     14.33562897	    -11.35796403	      9.69604540	    -53.59313911	      8.58728839	      2.09914001	     -0.39371310	      8.49110139	    -11.86361663
      2.89000000	     -5.14857564	     -5.59239529	     -3.46677511	     -0.49628777	      0.96300137	      0.13558111	     18.02402561	     10.90361938	    -15.98032657	    -23.65443020	      9.39657636	     -4.88756358	     15.15537575	    -11.51995135	      9.82592522	    -52.99904439	      9.11967270	      1.35868915	     -0.36736706	      8.48004187	    -11.57493252
      2.90000000	     -5.21611544	     -5.59818041	     -4.30348551	     -0.48986948	      0.96338701	      0.13980786	     17.22041108	     11.42052807	    -15.24576740	    -23.04273782	      9.55177139	     -4.89570207	     15.93014742	    -11.64355406	     10.00395656	    -52.24101500	      9.66276343	      0.72076587	     -0.33584729	      8.47051361	    -11.29049320
      2.91000000	     -5.28503300	     -5.59698769	     -5.15575353	     -0.48352465	      0.96370182	      0.14403172	     16.41260927	     11.91227155	    -14.48160972	    -22.43922777	      9.70738224	     -4.90270719	     16.66678553	    -11.73063556	     10.22579721	    -51.35120314	     10.18773103	      0.15866286	     -0.31064232	      8.45750957	    -11.00522923
      2.92000000	     -5.40800514	     -5.60749258	     -6.03402370	     -0.47728249	      0.96386599	      0.14824245	     15.66321011	     12.40196478	    -13.69175994	    -21.85397193	      9.85886292	     -4.91281654	     17.43433616	    -11.80946011	     10.49449240	    -50.36452277	     10.71136410	     -0.18067595	     -0.23690979	      8.47552385	    -10.70428814
      2.93000000	     -5.45229097	     -5.58077786	     -6.92108479	     -0.47104701	      0.96410839	      0.15244101	     14.80878565	     12.83325115	    -12.83335076	    -21.25204396	      9.99602385	     -4.92111282	     18.04910046	    -11.80444075	     10.81710034	    -49.22804052	     11.12571578	     -0.71032279	     -0.25340942	      8.44516879	    -10.40639313
      2.94000000	     -5.60340158	     -5.57441231	     -7.82831224	     -0.46493878	      0.96410814	      0.15662783	     14.07371870	     13.27242228	    -11.98840405	    -20.67253993	     10.13783127	     -4.93606129	     18.78181137	    -11.81473955	     11.18934924	    -48.05943858	     11.55037682	     -0.97533839	     -0.16231019	      8.46254057	    -10.09821253
      2.95000000	     -5.67519101	     -5.52620415	     -8.75272433	     -0.45883299	      0.96417553	      0.16080056	     13.23764337	     13.64158044	    -11.09300150	    -20.08260083	     10.28486872	     -4.95881394	     19.36920108	    -11.73989649	     11.60859345	    -46.77980707	     11.89107881	     -1.38132024	     -0.16195186	      8.42839576	     -9.78674631
      2.96000000	     -5.84905044	     -5.49274973	     -9.68879237	     -0.45285956	      0.96401297	      0.16495350	     12.52122328	     14.01573164	    -10.20897865	    -19.51822184	     10.41984972	     -4.98097817	     20.08141772	    -11.67267176	     12.09745490	    -45.50352785	     12.20054809	     -1.56031106	     -0.05901775	      8.43735984	     -9.46782996
      2.97000000	     -5.98362895	     -5.42851005	    -10.63735445	     -0.44690002	      0.96384682	      0.16908094	     11.76058187	     14.33005255	     -9.30554885	    -18.96259466	     10.56771594	     -5.01041766	     20.71747856	    -11.54298089	     12.63425436	    -44.17008353	     12.45162285	     -1.74227316	     -0.00024447	      8.41457487	     -9.13443447
      2.98000000	     -6.12343231	     -5.34759301	    -11.57739541	     -0.44096919	      0.96360427	      0.17315873	     11.01446459	     14.60090305	     -8.41338760	    -18.42683998	     10.72495026	     -5.04205306	     21.34891088	    -11.36653708	     13.24717948	    -42.81331671	     12.64551019	     -1.86507689	      0.06678282	      8.38287883	     -8.82052702
      2.99000000	     -6.23187594	     -5.24770437	    -12.50901873	     -0.43503469	      0.96333917	      0.17716938	     10.25053386	     14.81865705	     -7.51576775	    -17.92405036	     10.90126570	     -5.07912320	     21.92439705	    -11.13819543	     13.92317745	    -41.42328535	     12.79019511	     -1.94060667	      0.10208088	      8.33641247	     -8.51864245
      3.00000000	     -6.37861195	     -5.14019217	    -13.42113719	     -0.42912170	      0.96295915	      0.18113250	      9.54288532	     15.01385787	     -6.62248052	    -17.44556867	     11.06665980	     -5.10771010	     22.54419369	    -10.88333152	     14.67562940	    -40.03932742	     12.82830319	     -1.90943604	      0.18618589	      8.29379931	     -8.23108603
      3.01000000	     -6.48198029	     -5.01359436	    -14.31194631	     -0.42317047	      0.96257113	      0.18501078	      8.81813947	     15.15244160	     -5.72453790	    -17.01822714	     11.26070841	     -5.13990999	     23.09542116	    -10.57888029	     15.47971053	    -38.62506879	     12.80117497	     -1.80861499	      0.23045539	      8.23197997	     -7.96837404
      3.02000000	     -6.57891832	     -4.87286503	    -15.17332162	     -0.41719232	      0.96212683	      0.18881304	      8.12136227	     15.24920945	     -4.84358894	    -16.64224954	     11.46292072	     -5.17137632	     23.63180735	    -10.24036386	     16.32986259	    -37.20137998	     12.65825155	     -1.64520472	      0.27799145	      8.16174860	     -7.73026868
      3.03000000	     -6.65621274	     -4.71676296	    -16.00902987	     -0.41117379	      0.96163608	      0.19255547	      7.44833576	     15.30186434	     -3.97492128	    -16.33368705	     11.68873862	     -5.20515691	     24.13583515	     -9.87485771	     17.19376767	    -35.76475211	     12.41366739	     -1.42410921	      0.31537728	      8.07686226	     -7.51627453
      3.04000000	     -6.72084978	     -4.54772416	    -16.82172973	     -0.40510719	      0.96108703	      0.19625665	      6.81143968	     15.31623683	     -3.12629134	    -16.10078383	     11.93747964	     -5.24071644	     24.61836721	     -9.49476959	     18.04487793	    -34.32187461	     12.05479327	     -1.16281785	      0.35020290	      7.97858142	     -7.32181085
      3.05000000	     -6.78010819	     -4.36575235	    -17.61402596	     -0.39900487	      0.96047157	      0.19992509	      6.22421313	     15.29696683	     -2.29889968	    -15.94930822	     12.20366518	     -5.27682575	     25.09096482	     -9.10961209	     18.85510342	    -32.87489762	     11.56635847	     -0.89412467	      0.38854039	      7.87165214	     -7.14419515
      3.06000000	     -6.82689357	     -4.17692654	    -18.39586280	     -0.39286072	      0.95979694	      0.20360117	      5.67820270	     15.25210399	     -1.48858901	    -15.88489198	     12.49177019	     -5.31209365	     25.54495169	     -8.73516995	     19.58729357	    -31.42872809	     10.96315259	     -0.62623963	      0.42066147	      7.75445065	     -6.97030506
      3.07000000	     -6.86433967	     -3.98820919	    -19.16777353	     -0.38668250	      0.95906051	      0.20729827	      5.17068677	     15.19285586	     -0.69525969	    -15.90025601	     12.79949786	     -5.34360720	     25.98699343	     -8.38295046	     20.21974825	    -29.98924840	     10.25967972	     -0.37466576	      0.44606475	      7.63537814	     -6.80173379
      3.08000000	     -6.89348303	     -3.80633689	    -19.93074627	     -0.38046714	      0.95826535	      0.21102298	      4.69320131	     15.12670936	      0.08088127	    -15.98406387	     13.12472724	     -5.36766199	     26.41886485	     -8.06195740	     20.73015338	    -28.56230493	      9.48682779	     -0.15088635	      0.46323366	      7.52209115	     -6.63551275
      3.09000000	     -6.91570243	     -3.63147083	    -20.68912932	     -0.37422202	      0.95741667	      0.21477146	      4.24614423	     15.05627364	      0.84554384	    -16.13594873	     13.45473048	     -5.38320123	     26.84010127	     -7.77069311	     21.11190692	    -27.15051586	      8.68984015	      0.03692896	      0.46996246	      7.41658569	     -6.46724558
